<svg width="32" height="32" viewBox="0 0 32 32" fill="none" xmlns="http://www.w3.org/2000/svg">
  <!-- Background with modern gradient and subtle shadow -->
  <defs>
    <linearGradient id="bgGradient" x1="0%" y1="0%" x2="100%" y2="100%">
      <stop offset="0%" style="stop-color:#1E40AF;stop-opacity:1" />
      <stop offset="30%" style="stop-color:#3B82F6;stop-opacity:1" />
      <stop offset="60%" style="stop-color:#8B5CF6;stop-opacity:1" />
      <stop offset="100%" style="stop-color:#6366F1;stop-opacity:1" />
    </linearGradient>
    
    <linearGradient id="wrenchGradient" x1="0%" y1="0%" x2="100%" y2="100%">
      <stop offset="0%" style="stop-color:#FFFFFF;stop-opacity:1" />
      <stop offset="100%" style="stop-color:#F1F5F9;stop-opacity:1" />
    </linearGradient>
    
    <linearGradient id="glowGradient" x1="0%" y1="0%" x2="100%" y2="100%">
      <stop offset="0%" style="stop-color:#FCD34D;stop-opacity:0.9" />
      <stop offset="100%" style="stop-color:#F59E0B;stop-opacity:0.6" />
    </linearGradient>
    
    <filter id="shadow" x="-20%" y="-20%" width="140%" height="140%">
      <feDropShadow dx="0" dy="2" stdDeviation="2" flood-color="#000000" flood-opacity="0.3"/>
    </filter>
  </defs>
  
  <!-- Background with gradient and shadow -->
  <rect width="32" height="32" rx="7" fill="url(#bgGradient)" filter="url(#shadow)" />
  
  <!-- Inner glow effect -->
  <rect x="1" y="1" width="30" height="30" rx="6" fill="none" stroke="url(#glowGradient)" stroke-width="0.5" opacity="0.7" />
  
  <!-- Wrench icon centered and refined -->
  <g transform="translate(16, 16)">
    <!-- Main wrench body -->
    <path d="M-6 -2 L-4 -4 L0 0 L-1 1 L1 3 L3 1 L1 -1 L4 -4 L6 -2 L4 0 L2 -2 L0 0 L-2 2 L-4 0 L-6 -2 Z" 
          fill="url(#wrenchGradient)" stroke="rgba(255,255,255,0.4)" stroke-width="0.3" />
    
    <!-- Wrench handle -->
    <rect x="-1" y="2" width="2" height="6" rx="1" fill="url(#wrenchGradient)" stroke="rgba(255,255,255,0.3)" stroke-width="0.2" />
    
    <!-- Sparkle effects -->
    <circle cx="5" cy="-5" r="0.8" fill="#FCD34D" opacity="0.9">
      <animate attributeName="opacity" values="0.9;0.3;0.9" dur="2s" repeatCount="indefinite" />
      <animate attributeName="r" values="0.8;1.2;0.8" dur="2s" repeatCount="indefinite" />
    </circle>
    
    <circle cx="-4" cy="6" r="0.6" fill="#FBBF24" opacity="0.8">
      <animate attributeName="opacity" values="0.8;0.2;0.8" dur="2.5s" repeatCount="indefinite" />
    </circle>
    
    <circle cx="2" cy="-7" r="0.4" fill="#FEF3C7" opacity="0.6">
      <animate attributeName="opacity" values="0.6;0.9;0.6" dur="1.8s" repeatCount="indefinite" />
    </circle>
    
    <!-- Technical dots for detail -->
    <circle cx="-3" cy="-1" r="0.3" fill="rgba(255,255,255,0.6)" />
    <circle cx="3" cy="-1" r="0.3" fill="rgba(255,255,255,0.6)" />
  </g>

  <!-- Subtle border highlight -->
  <rect x="0.5" y="0.5" width="31" height="31" rx="6.5" fill="none" stroke="rgba(255,255,255,0.2)" stroke-width="1" />
</svg>